<?xml version="1.0" encoding="UTF-8"?>
<svg xmlns="http://www.w3.org/2000/svg" xmlns:xlink="http://www.w3.org/1999/xlink" width="18px" height="18px" viewBox="0 0 18 18" version="1.1">
<g id="surface1">
<path style=" stroke:none;fill-rule:nonzero;fill:rgb(0%,0%,0%);fill-opacity:1;" d="M 3.917969 0 C 4.242188 0.664062 3.820312 1.613281 3.734375 2.269531 L 0.8125 16.652344 C 0.613281 17.300781 0.34375 17.746094 0 18 L 2.539062 18 C 2.125 17.554688 2.007812 16.898438 2.1875 16.023438 L 3.433594 10.515625 L 7.027344 10.515625 L 8.460938 16.484375 C 8.554688 17.144531 8.511719 17.648438 8.324219 18 L 11.566406 18 C 11.109375 17.457031 10.796875 16.910156 10.621094 16.359375 L 6.460938 0 L 3.917969 0 M 10.730469 0.167969 C 9.371094 0.515625 8.824219 1.664062 9.082031 3.617188 L 9.1875 3.871094 L 9.40625 4.375 C 9.519531 4.484375 9.609375 4.597656 9.675781 4.710938 C 9.824219 4.808594 9.941406 4.921875 10.027344 5.046875 C 10.203125 5.148438 10.34375 5.277344 10.460938 5.425781 L 10.511719 5.46875 L 10.675781 5.636719 C 10.960938 5.835938 11.1875 6.089844 11.351562 6.390625 C 11.539062 6.90625 11.605469 7.425781 11.539062 7.949219 C 11.292969 8.617188 10.929688 8.910156 10.460938 8.832031 C 9.785156 8.59375 9.277344 7.921875 8.945312 6.8125 L 8.945312 8.957031 C 9.441406 9.402344 9.945312 9.640625 10.460938 9.671875 C 11.835938 9.667969 12.582031 8.699219 12.703125 6.769531 C 12.65625 6.207031 12.539062 5.714844 12.351562 5.300781 C 12.238281 5.171875 12.160156 5.046875 12.109375 4.921875 L 12.027344 4.835938 L 11.945312 4.792969 L 11.511719 4.375 C 11.371094 4.277344 11.253906 4.164062 11.164062 4.039062 C 10.757812 3.765625 10.433594 3.402344 10.1875 2.945312 C 9.960938 1.640625 10.277344 0.96875 11.136719 0.925781 C 11.730469 1.160156 12.152344 1.675781 12.40625 2.480469 L 12.40625 0.628906 L 12.351562 0.589844 C 12.277344 0.550781 12.214844 0.507812 12.164062 0.460938 L 12.082031 0.460938 C 11.980469 0.398438 11.871094 0.355469 11.757812 0.335938 C 11.613281 0.261719 11.476562 0.21875 11.351562 0.210938 L 11.242188 0.210938 C 11.066406 0.160156 10.914062 0.144531 10.785156 0.167969 L 10.757812 0.167969 L 10.785156 0.167969 L 10.730469 0.167969 L 10.757812 0.167969 L 10.730469 0.167969 M 15.675781 0.167969 C 14.125 0.5 13.214844 1.777344 12.945312 3.996094 C 12.730469 6.382812 13.234375 8.121094 14.460938 9.210938 C 15.703125 10.007812 16.8125 9.757812 17.785156 8.453125 L 17.785156 8.328125 L 17.8125 8.160156 L 17.863281 7.863281 L 17.890625 7.78125 C 17.914062 7.515625 17.953125 7.289062 18 7.109375 C 17.984375 7.054688 17.96875 7.027344 17.945312 7.023438 C 17.050781 8.734375 16.070312 9.125 15 8.199219 C 14.148438 7.078125 13.863281 5.480469 14.136719 3.40625 C 14.316406 2.015625 14.800781 1.199219 15.59375 0.96875 C 16.460938 0.875 17.152344 1.546875 17.675781 2.984375 L 17.675781 0.839844 L 17.59375 0.800781 L 17.539062 0.757812 C 17.394531 0.683594 17.265625 0.597656 17.164062 0.503906 C 16.96875 0.453125 16.816406 0.398438 16.703125 0.335938 C 16.558594 0.285156 16.441406 0.257812 16.351562 0.253906 C 16.070312 0.175781 15.847656 0.148438 15.675781 0.167969 M 5.109375 2.902344 C 5.15625 2.96875 5.679688 5.042969 6.675781 9.125 L 3.703125 9.125 L 5.109375 2.902344 "/>
</g>
</svg>
