<svg id="Camada_1" data-name="Camada 1" xmlns="http://www.w3.org/2000/svg" xmlns:xlink="http://www.w3.org/1999/xlink" viewBox="0 0 1920 1080"><defs><style>.cls-1{fill:#fff;}.cls-2{fill:url(#Gradiente_sem_nome_45);}.cls-3{fill:url(#Gradiente_sem_nome_45-2);}.cls-4{fill:url(#Gradiente_sem_nome_45-3);}</style><linearGradient id="Gradiente_sem_nome_45" x1="418.11" y1="538.18" x2="600.39" y2="538.18" gradientUnits="userSpaceOnUse"><stop offset="0" stop-color="#b8349b"/><stop offset="1" stop-color="#ed0c6b"/></linearGradient><linearGradient id="Gradiente_sem_nome_45-2" x1="467.54" y1="538.19" x2="516.35" y2="538.19" xlink:href="#Gradiente_sem_nome_45"/><linearGradient id="Gradiente_sem_nome_45-3" x1="502.14" y1="538.18" x2="550.96" y2="538.18" xlink:href="#Gradiente_sem_nome_45"/></defs><rect class="cls-1" width="1920" height="1080"/><path class="cls-1" d="M715.79,560.66c0-19.13-50.3-4-50.3-42.27,0-26.59,23.53-31.56,40.93-31.56,13,0,24.48,2.1,30.22,4,5,1.73,6.5,3.64,5,8.61l-2.1,6.7c-1.53,5.35-5.35,4.78-9.18,3.63a91.07,91.07,0,0,0-22-3.06c-10.32,0-16.45,2.87-16.45,10.14,0,18.55,50.5,2.48,50.5,42.27,0,27.54-23.72,32.32-40.74,32.32-10.9,0-28.5-2.1-34-3.63-4.4-1.34-6.12-3.45-5-8.42l1.53-6.12c1.15-5.16,3.83-5.74,7.84-5.16,3.06.38,16.45,3.44,26.78,3.44C710.06,571.56,715.79,568.12,715.79,560.66Z"/><path class="cls-1" d="M787.33,515.9v17.79l27.54-36.15c4.78-8.42,5.54-8.8,25.25-8.8,5.92,0,9,.38,9,2.68,0,1.91-2.1,5.35-6.31,11.28L812,537.7l30.41,37.68c4.21,5.93,6.31,9.19,6.31,11.29,0,2.29-2.87,2.87-9,2.87-19.7,0-20.27-.19-25.24-9l-27.16-38.06v31c0,15.3-1,16.07-15.5,16.07-11.09,0-11.86-1.15-11.86-16.07V515.9c0-12.82-1-53.17-1-59.68,0-8.79.19-9.18,16.06-9.18,12.44,0,12.82.39,12.82,14.16C787.9,478.6,787.33,498.11,787.33,515.9Z"/><path class="cls-1" d="M924.27,503.28c0-14.16.58-14.54,13-14.54,14.92,0,14.92.38,14.92,12.05,0,18.17-.58,36.15-2.68,52.6C943,599.68,924.85,633,881.43,633a78.13,78.13,0,0,1-19.7-2.49c-5-1.34-6.51-2.49-5.55-7.84l2.29-8.8c1.15-5.55,4.4-5.36,7.46-4.78,2.68,0,8,1.34,12.63,1.34,24.86,0,34-13.39,39.78-41.13-8.8,19.7-17.79,22.19-23.91,22.19-32.13,0-32.51-55.28-32.51-90.66,0-11.67,0-12.05,15.11-12.05,12.62,0,13,.38,13,14.54v11.09c0,16.26,2.11,53.75,16.45,53.75,13.39,0,17.79-36,17.79-53.75Z"/><path class="cls-1" d="M971.89,497.92c0-8.8.19-9.18,15.88-9.18,12.43,0,13,.38,13,14.15V513.6c5.16-18.17,18.74-26.77,31.36-26.77,12,0,22.57,5,24.68,26.39,4.59-17.79,19.12-26.39,32.13-26.39,13.39,0,25.25,6.12,25.25,35.19,0,12.82-.77,26.2-.77,43.8v8c0,15.11-1.14,15.69-15.49,15.69-10.71,0-11.67-1-11.67-15.69V527.19c0-9.19-3.44-14.54-10.52-14.54-10.13,0-18.93,11.09-18.93,33.66h-1.34V525.46a48.85,48.85,0,0,1,1.34-12.24,62.25,62.25,0,0,1,.57,8.8c0,12.82-.57,26.2-.57,43.8v7.65c0,15.3-1,16.07-15.69,16.07-10.9,0-11.66-1.15-11.66-16.07V527.19c0-9.38-3.64-14.54-10.52-14.54-9,0-17,8.8-18.75,26.58v34.24c0,15.3-1,16.07-15.68,16.07-10.9,0-11.67-1.15-11.67-16.07V557.6C972.85,544.78,971.89,504.42,971.89,497.92Z"/><path class="cls-1" d="M1163.92,531.39c12.24,0,22.77,3.83,28.5,12.82V531.39c0-17.79-11.66-21.23-21.8-21.23-9,0-18.55,2.68-22.76,3.83-4.4,1.53-7.27,1-9.37-4.78L1136,502.7c-2.1-5.93.38-8.41,5-10.13a100,100,0,0,1,34.43-5.74c19.51,0,44.37,5,44.37,40.93v46.09c0,15.11-1.14,15.69-15.49,15.69-9.37,0-11.47-.77-11.86-10.14-5.73,9-16.64,12.05-29.07,12.05-20.27,0-33.09-10.14-33.09-29.26C1130.26,541.91,1144.22,531.39,1163.92,531.39Zm-4.78,30.22c0,9.18,5.55,14.92,16.07,14.92s17.21-5.74,17.21-14.92c0-9-6.5-15.49-17.21-15.49C1164.69,546.12,1159.14,552.43,1159.14,561.61Z"/><path class="cls-1" d="M1245.59,488.74v-.19c0-25.25,11.67-27.54,21.24-27.54,7.45,0,6.88,1.14,6.88,16.06v11.67h21.23c3.83,0,8.23.76,8.23,9v5.16c0,7.46-4.79,8.23-8.23,8.23h-21.42c-.19,14.15-.19,29.07-.19,44.76q0,13.77,11.47,13.77c4.4,0,8-1.34,10.71-2.11,4-.95,6.7-.76,8.23,4.59l1.72,6.89c1.34,5.16-.38,7.08-5.35,8.61a73.61,73.61,0,0,1-22.77,3.82c-20.65,0-30.79-10.14-30.79-29.45,0-19.13-.57-35.39-.76-50.88h-5.93c-3.45,0-8.23-.77-8.23-8.23v-5.16c0-8.23,4.4-9,8.23-9Z"/><path class="cls-1" d="M1367.62,569.84c5.55,0,10.9-1.53,15.11-2.49,4.59-1,6.89-.19,7.65,4l1.92,8.22c.76,4.21-.2,6.12-5,7.85-5.54,2.29-15.87,4-25.82,4-31,0-47.24-17.21-47.24-52.41,0-35,16.45-52.4,47.24-52.4a85.47,85.47,0,0,1,25.82,4c4.59,1.72,5.93,3.83,5,7.84l-1.92,9.95c-1,4.4-3.44,5.16-7.84,4-4-1-9.18-2.3-14.92-2.3-16.83,0-25,9.76-25,29.84C1342.57,559.89,1350.79,569.84,1367.62,569.84Z"/><path class="cls-1" d="M1437.43,515.9v3.83c4.4-22.38,22-32.9,38.07-32.9,15.3,0,26.39,7.27,26.39,35.19,0,13.2-.76,26.78-.76,40v11.85c0,15.11-1.34,15.69-15.69,15.69-10.71,0-11.67-1-11.67-15.69V528.33c0-10.14-3.63-15.68-12.62-15.68-12.24,0-23.72,11.09-23.72,35.57v25.25c0,15.3-1,16.07-15.49,16.07-11.09,0-11.86-1.15-11.86-16.07V515.9c0-12.82-.95-53.17-.95-59.68,0-8.79.19-9.18,16.06-9.18,12.44,0,12.82.39,12.82,14.16C1438,478.6,1437.43,498.11,1437.43,515.9Z"/><path class="cls-2" d="M509.25,629.32a91.14,91.14,0,1,1,91.14-91.14A91.24,91.24,0,0,1,509.25,629.32Zm0-153.88A62.75,62.75,0,1,0,572,538.18,62.82,62.82,0,0,0,509.25,475.44Z"/><path class="cls-3" d="M493.86,564.51a26.33,26.33,0,1,1,21.06-42.13,7.1,7.1,0,1,1-11.36,8.53,12.13,12.13,0,1,0-9.7,19.4,7.1,7.1,0,0,1,0,14.2Z"/><path class="cls-4" d="M524.63,564.51a7.1,7.1,0,1,1,0-14.2,12.13,12.13,0,1,0-9.71-19.4,7.1,7.1,0,1,1-11.36-8.53,26.33,26.33,0,1,1,21.07,42.13Z"/></svg>